<svg width="134" height="134" viewBox="0 0 134 134" fill="none" xmlns="http://www.w3.org/2000/svg">
<rect x="27.8262" y="27.9482" width="27.4445" height="27.5868" rx="7" transform="rotate(-0.0290041 27.8262 27.9482)" fill="#300450"/>
<rect x="51.9355" y="52.584" width="27.4445" height="27.5868" rx="7" transform="rotate(-0.0290041 51.9355 52.584)" fill="#300450"/>
<rect x="27.6973" y="77.2051" width="27.4445" height="27.5868" rx="7" transform="rotate(-0.0290041 27.6973 77.2051)" fill="#300450"/>
<rect x="76.6895" y="27.5664" width="27.4445" height="27.5868" rx="7" transform="rotate(-0.0290041 76.6895 27.5664)" fill="#300450"/>
<mask id="mask0_349_1262" style="mask-type:alpha" maskUnits="userSpaceOnUse" x="31" y="38" width="42" height="38">
<rect x="35.2852" y="38.3477" width="37.0174" height="32.9043" transform="rotate(7.07594 35.2852 38.3477)" fill="#D9D9D9"/>
</mask>
<g mask="url(#mask0_349_1262)">
<path d="M97.7412 -9.2192C111.548 -9.22614 122.747 1.96104 122.754 15.7681L122.794 95.0389C122.801 108.846 111.614 120.045 97.8068 120.052L16.5588 120.093C4.90037 120.099 -4.89911 112.123 -7.67054 101.328C-6.58734 102.437 -5.07809 103.128 -3.40566 103.136L46.0833 103.352C49.3969 103.366 52.0947 100.691 52.1093 97.3778L52.2654 61.6582C52.2799 58.3445 49.605 55.6466 46.2913 55.6322L-3.19762 55.4161C-5.46525 55.4064 -7.44499 56.6557 -8.47312 58.5076L-8.49392 15.8343C-8.50086 2.02735 2.68652 -9.17133 16.4934 -9.17855L97.7412 -9.2192ZM-8.454 95.106C-8.45283 97.2541 -8.18116 99.3391 -7.67054 101.328C-8.73325 100.24 -9.38582 98.7507 -9.37879 97.1099L-9.22358 61.3902C-9.21902 60.3445 -8.9472 59.3616 -8.47312 58.5076L-8.454 95.106ZM102.949 -2.75399C102.948 -6.06756 100.261 -8.75242 96.947 -8.75097L61.2265 -8.73309C57.913 -8.73118 55.2277 -6.04339 55.2294 -2.72983L55.2544 46.6877C55.2567 50.0008 57.9446 52.6853 61.2578 52.6838L96.9774 52.6658C100.291 52.6642 102.975 49.9768 102.974 46.6636L102.949 -2.75399Z" fill="#300450"/>
</g>
<mask id="mask1_349_1262" style="mask-type:alpha" maskUnits="userSpaceOnUse" x="57" y="31" width="37" height="41">
<rect x="93.7734" y="34.5586" width="37.0174" height="32.9043" transform="rotate(96.2002 93.7734 34.5586)" fill="#D9D9D9"/>
</mask>
<g mask="url(#mask1_349_1262)">
<path d="M141.799 96.6332C142.016 110.438 131.002 121.805 117.197 122.024L37.9361 123.277C24.131 123.495 12.7629 112.479 12.5444 98.6736L11.2609 17.4358C11.0682 5.21835 19.6729 -5.0886 31.2235 -7.44924C29.6989 -6.34602 28.7142 -4.546 28.7363 -2.52107L29.2766 46.9654C29.3131 50.2787 32.0288 52.9356 35.3421 52.8994L71.06 52.5096C74.3732 52.4732 77.0299 49.7573 76.9939 46.4441L76.4536 -3.04242C76.4263 -5.53388 74.8837 -7.65412 72.7116 -8.53729L115.125 -9.20756C128.93 -9.42488 140.298 1.58977 140.517 15.3945L141.799 96.6332ZM35.8629 -7.95504C34.2754 -7.92995 32.7244 -7.75597 31.2235 -7.44924C32.1937 -8.15121 33.3818 -8.57248 34.6702 -8.58657L70.3881 -8.97636C71.2097 -8.98529 71.9953 -8.82852 72.7116 -8.53729L35.8629 -7.95504ZM135.415 101.938C138.728 101.885 141.372 99.1559 141.32 95.8435L140.756 60.1283C140.704 56.8155 137.975 54.172 134.662 54.2237L85.2505 55.004C81.9374 55.0564 79.2939 57.7842 79.346 61.0973L79.9098 96.8134C79.9626 100.126 82.6911 102.77 86.004 102.718L135.415 101.938Z" fill="#300450"/>
</g>
<mask id="mask2_349_1262" style="mask-type:alpha" maskUnits="userSpaceOnUse" x="32" y="55" width="38" height="41">
<rect x="69.5371" y="59.1797" width="37.0174" height="32.9043" transform="rotate(96.2002 69.5371 59.1797)" fill="#D9D9D9"/>
</mask>
<g mask="url(#mask2_349_1262)">
<path d="M117.045 121.643C117.263 135.448 106.248 146.816 92.4431 147.035L13.1812 148.286C-0.623869 148.504 -11.9924 137.489 -12.2106 123.684L-13.4931 42.4466C-13.6822 30.4541 -5.39486 20.3023 5.83464 17.6998C4.71397 18.8034 4.02456 20.3426 4.04296 22.0395L4.58427 71.5261C4.62056 74.8394 7.33551 77.4959 10.6488 77.4599L46.3676 77.0702C49.6807 77.0336 52.3377 74.3179 52.3015 71.0047L51.7602 21.5181C51.7366 19.3703 50.587 17.4988 48.8788 16.4576L90.3709 15.8032C104.176 15.5858 115.543 26.6004 115.762 40.4052L117.045 121.643ZM11.109 17.0547C9.29653 17.0834 7.53179 17.3065 5.83464 17.6998C6.90206 16.6488 8.36165 15.9918 9.97787 15.9741L45.6957 15.5843C46.8609 15.5717 47.952 15.8928 48.8788 16.4576L11.109 17.0547ZM110.663 126.948C113.976 126.895 116.62 124.167 116.568 120.854L116.003 85.1382C115.95 81.8256 113.222 79.182 109.91 79.2337L60.4985 80.014C57.1856 80.0665 54.5419 82.7953 54.5939 86.1082L55.1577 121.824C55.2104 125.137 57.9391 127.78 61.2521 127.728L110.663 126.948Z" fill="#300450"/>
</g>
<rect x="90.0254" y="64.8252" width="27.4445" height="27.5868" rx="7" transform="rotate(-0.0290041 90.0254 64.8252)" fill="#300450"/>
<rect x="65.7852" y="89.4463" width="27.4445" height="27.5868" rx="7" transform="rotate(-0.0290041 65.7852 89.4463)" fill="#300450"/>
<mask id="mask3_349_1262" style="mask-type:alpha" maskUnits="userSpaceOnUse" x="70" y="67" width="38" height="42">
<rect x="107.625" y="71.4199" width="37.0174" height="32.9043" transform="rotate(96.2002 107.625 71.4199)" fill="#D9D9D9"/>
</mask>
<g mask="url(#mask3_349_1262)">
<path d="M155.133 133.883C155.351 147.688 144.336 159.057 130.531 159.275L51.2691 160.527C37.464 160.744 26.0954 149.73 25.8772 135.925L24.5948 54.6868C24.4057 42.6944 32.693 32.5426 43.9225 29.94C42.8019 31.0436 42.1124 32.5828 42.1308 34.2797L42.6722 83.7663C42.7084 87.0796 45.4234 89.7362 48.7367 89.7002L84.4555 89.3105C87.7686 89.2739 90.4255 86.5582 90.3894 83.245L89.8481 33.7584C89.8245 31.6105 88.6749 29.7391 86.9667 28.6978L128.459 28.0434C142.263 27.826 153.631 38.8407 153.85 52.6454L155.133 133.883ZM49.1969 29.295C47.3844 29.3236 45.6197 29.5467 43.9225 29.94C44.99 28.889 46.4495 28.232 48.0658 28.2143L83.7836 27.8245C84.9488 27.8119 86.0399 28.133 86.9667 28.6978L49.1969 29.295ZM148.751 139.188C152.064 139.135 154.708 136.407 154.656 133.095L154.091 97.3785C154.038 94.0659 151.31 91.4222 147.998 91.4739L98.5864 92.2542C95.2734 92.3067 92.6298 95.0355 92.6818 98.3485L93.2456 134.065C93.2983 137.377 96.027 140.02 99.3399 139.968L148.751 139.188Z" fill="#300450"/>
</g>
</svg>
